<svg width="2947" height="1556" xmlns="http://www.w3.org/2000/svg" xmlns:xlink="http://www.w3.org/1999/xlink" xml:space="preserve" overflow="hidden"><defs><clipPath id="clip0"><rect x="200" y="462" width="2947" height="1556"/></clipPath></defs><g clip-path="url(#clip0)" transform="translate(-200 -462)"><rect x="202.5" y="464.5" width="1547" height="1547" stroke="#000000" stroke-width="4.58333" stroke-miterlimit="8" fill="#FFFFFF"/><rect x="1859.5" y="716.5" width="1285" height="157" stroke="#000000" stroke-width="4.58333" stroke-miterlimit="8" fill="#FFFFFF"/><rect x="1942" y="764" width="59.0001" height="59.9998" fill="#0D0D0D"/><rect x="2021" y="764" width="60.0001" height="59.9998" fill="#D9D9D9"/><rect x="2101" y="764" width="59.0002" height="59.9998" fill="#D9D9D9"/><rect x="2180" y="764" width="59.9998" height="59.9998" fill="#404040"/><rect x="2260" y="764" width="58.9998" height="59.9998" fill="#0D0D0D"/><rect x="2339" y="764" width="60.0002" height="59.9998" fill="#767171"/><rect x="2419" y="764" width="60.0002" height="59.9998" fill="#181717"/><rect x="2506" y="764" width="60.0002" height="59.9998" fill="#7F7F7F"/><rect x="2585" y="764" width="60.0002" height="59.9998" fill="#D9D9D9"/><rect x="2665" y="764" width="59.9998" height="59.9998" fill="#D9D9D9"/><rect x="2744" y="764" width="59.9998" height="59.9998" fill="#595959"/><rect x="2824" y="764" width="59.0002" height="59.9998" fill="#D9D9D9"/><rect x="2983" y="764" width="59.9998" height="59.9998" fill="#D0CECE"/><path d="M2939.09 824.881 2946.29 824.881 2946.29 833.15 2939.09 833.15ZM2921.63 824.881 2928.83 824.881 2928.83 833.15 2921.63 833.15ZM2904.16 824.881 2911.36 824.881 2911.36 833.15 2904.16 833.15Z" fill-rule="evenodd"/><text fill="#000000" fill-opacity="0" font-family="Arial,Arial_MSFontService,sans-serif" font-size="8.26953" x="2904.16" y="832.117">…</text><rect x="1859.5" y="981.5" width="1285" height="157" stroke="#000000" stroke-width="4.58333" stroke-miterlimit="8" fill="#FFFFFF"/><rect x="1942" y="1029" width="59.0001" height="59.0001" fill="#0D0D0D"/><rect x="2021" y="1029" width="60.0001" height="59.0001" fill="#FFFFFF"/><rect x="2101" y="1029" width="59.0002" height="59.0001" fill="#D9D9D9"/><rect x="2180" y="1029" width="59.9998" height="59.0001" fill="#404040"/><rect x="2260" y="1029" width="58.9998" height="59.0001" fill="#0D0D0D"/><rect x="2339" y="1029" width="60.0002" height="59.0001" fill="#FFFFFF"/><rect x="2419" y="1029" width="60.0002" height="59.0001" fill="#181717"/><rect x="2506" y="1029" width="60.0002" height="59.0001" fill="#E7E6E6"/><rect x="2585" y="1029" width="60.0002" height="59.0001" fill="#FFFFFF"/><rect x="2665" y="1029" width="59.9998" height="59.0001" fill="#D9D9D9"/><rect x="2744" y="1029" width="59.9998" height="59.0001" fill="#E7E6E6"/><rect x="2824" y="1029" width="59.0002" height="59.0001" fill="#D9D9D9"/><rect x="2983" y="1029" width="59.9998" height="59.0001" fill="#D0CECE"/><path d="M2939.09 1089.57 2946.29 1089.57 2946.29 1097.84 2939.09 1097.84ZM2921.63 1089.57 2928.83 1089.57 2928.83 1097.84 2921.63 1097.84ZM2904.16 1089.57 2911.36 1089.57 2911.36 1097.84 2904.16 1097.84Z" fill-rule="evenodd"/><text fill="#000000" fill-opacity="0" font-family="Arial,Arial_MSFontService,sans-serif" font-size="8.26953" x="2904.16" y="1096.8">…</text><rect x="1859.5" y="1258.5" width="1285" height="157" stroke="#000000" stroke-width="4.58333" stroke-miterlimit="8" fill="#FFFFFF"/><rect x="1942" y="1306" width="59.0001" height="59.0001" fill="#E7E6E6"/><rect x="2021" y="1306" width="60.0001" height="59.0001" fill="#D9D9D9"/><rect x="2101" y="1306" width="59.0002" height="59.0001"/><rect x="2180" y="1306" width="59.9998" height="59.0001" fill="#E7E6E6"/><rect x="2260" y="1306" width="58.9998" height="59.0001" fill="#0D0D0D"/><rect x="2339" y="1306" width="60.0002" height="59.0001"/><rect x="2419" y="1306" width="60.0002" height="59.0001" fill="#181717"/><rect x="2506" y="1306" width="60.0002" height="59.0001" fill="#7F7F7F"/><rect x="2585" y="1306" width="60.0002" height="59.0001" fill="#D9D9D9"/><rect x="2665" y="1306" width="59.9998" height="59.0001" fill="#D9D9D9"/><rect x="2744" y="1306" width="59.9998" height="59.0001"/><rect x="2824" y="1306" width="59.0002" height="59.0001"/><rect x="2983" y="1306" width="59.9998" height="59.0001" fill="#D0CECE"/><path d="M2939.09 1366.47 2946.29 1366.47 2946.29 1374.73 2939.09 1374.73ZM2921.63 1366.47 2928.83 1366.47 2928.83 1374.73 2921.63 1374.73ZM2904.16 1366.47 2911.36 1366.47 2911.36 1374.73 2904.16 1374.73Z" fill-rule="evenodd"/><text fill="#000000" fill-opacity="0" font-family="Arial,Arial_MSFontService,sans-serif" font-size="8.26953" x="2904.16" y="1373.7">…</text><rect x="1859.5" y="1535.5" width="1285" height="156" stroke="#000000" stroke-width="4.58333" stroke-miterlimit="8" fill="#FFFFFF"/><rect x="1942" y="1582" width="59.0001" height="60.0001" fill="#E7E6E6"/><rect x="2021" y="1582" width="60.0001" height="60.0001" fill="#D9D9D9"/><rect x="2101" y="1582" width="59.0002" height="60.0001"/><rect x="2180" y="1582" width="59.9998" height="60.0001" fill="#E7E6E6"/><rect x="2260" y="1582" width="58.9998" height="60.0001" fill="#0D0D0D"/><rect x="2339" y="1582" width="60.0002" height="60.0001" fill="#767171"/><rect x="2419" y="1582" width="60.0002" height="60.0001" fill="#181717"/><rect x="2506" y="1582" width="60.0002" height="60.0001" fill="#7F7F7F"/><rect x="2585" y="1582" width="60.0002" height="60.0001" fill="#D9D9D9"/><rect x="2665" y="1582" width="59.9998" height="60.0001" fill="#D9D9D9"/><rect x="2744" y="1582" width="59.9998" height="60.0001" fill="#595959"/><rect x="2824" y="1582" width="59.0002" height="60.0001"/><rect x="2983" y="1582" width="59.9998" height="60.0001"/><path d="M2939.09 1643.36 2946.29 1643.36 2946.29 1651.63 2939.09 1651.63ZM2921.63 1643.36 2928.83 1643.36 2928.83 1651.63 2921.63 1651.63ZM2904.16 1643.36 2911.36 1643.36 2911.36 1651.63 2904.16 1651.63Z" fill-rule="evenodd"/><text fill="#000000" fill-opacity="0" font-family="Arial,Arial_MSFontService,sans-serif" font-size="8.26953" x="2904.16" y="1650.6">…</text><path d="M1857.97 795.721 1577.46 670.394 1578.39 668.302 1858.91 793.629ZM1576.5 683.772 1557 660 1587.72 658.664Z"/><path d="M1858.1 1060.46 573.574 667.793 574.244 665.602 1858.77 1058.27ZM574.279 681.189 552 660 582.318 654.89Z"/><path d="M0.19297-1.12947 1311.38 222.888 1311 225.147-0.19297 1.12947ZM1308.99 209.692 1333.78 227.876 1304.35 236.799Z" transform="matrix(-1 0 0 1 1858.78 1336)"/><path d="M0.212529-1.12595 885.698 166.014 885.273 168.266-0.212529 1.12595ZM883.531 152.778 908.004 171.39 878.431 179.801Z" transform="matrix(-1 0 0 1 1859 1613)"/><text font-family="Arial,Arial_MSFontService,sans-serif" font-weight="400" font-size="83" transform="matrix(1 0 0 1 2451.91 1949)">…</text></g></svg>